<?xml version="1.0" encoding="utf-8"?>
<!-- Generator: Adobe Illustrator 19.2.0, SVG Export Plug-In . SVG Version: 6.00 Build 0)  -->
<svg version="1.1" id="Layer_1" xmlns="http://www.w3.org/2000/svg" xmlns:xlink="http://www.w3.org/1999/xlink" x="0px" y="0px"
	 viewBox="0 0 32.2 32.2" style="enable-background:new 0 0 32.2 32.2;" xml:space="preserve">
<path d="M25.4,23.1l-8.8,8.8c-0.2,0.2-0.3,0.2-0.5,0.2c-0.2,0-0.4-0.1-0.5-0.2l-8.8-8.8c-0.2-0.2-0.2-0.3-0.2-0.5
	c0-0.2,0.1-0.4,0.2-0.5l2-2c0.2-0.2,0.3-0.2,0.5-0.2c0.2,0,0.4,0.1,0.5,0.2l6.3,6.3l6.3-6.3c0.2-0.2,0.3-0.2,0.5-0.2
	c0.2,0,0.4,0.1,0.5,0.2l2,2c0.2,0.2,0.2,0.3,0.2,0.5C25.6,22.8,25.6,23,25.4,23.1z M6.7,9l8.8-8.8C15.7,0.1,15.9,0,16.1,0
	c0.2,0,0.4,0.1,0.5,0.2L25.4,9c0.2,0.2,0.2,0.3,0.2,0.5s-0.1,0.4-0.2,0.5l-2,2c-0.2,0.2-0.3,0.2-0.5,0.2c-0.2,0-0.4-0.1-0.5-0.2
	l-6.3-6.3l-6.3,6.3c-0.2,0.2-0.3,0.2-0.5,0.2s-0.4-0.1-0.5-0.2l-2-2C6.6,10,6.5,9.8,6.5,9.6S6.6,9.2,6.7,9z"/>
</svg>
